<svg xmlns="http://www.w3.org/2000/svg" xmlns:xlink="http://www.w3.org/1999/xlink" width="14" height="14" viewBox="0 0 14 14">
  <defs>
    <clipPath id="clip-path">
      <rect id="Rectangle_424" data-name="Rectangle 424" width="14" height="14" transform="translate(987 999)" fill="#fff" stroke="#707070" stroke-width="1"/>
    </clipPath>
  </defs>
  <g id="dealhot-icon" transform="translate(-987 -999)" clip-path="url(#clip-path)">
    <path id="danger" d="M12.888,9.637a12.877,12.877,0,0,0-1.773-5.386L10.48,3.176a3.134,3.134,0,0,1-.069,1.237,2.7,2.7,0,0,1-.62.942,5.321,5.321,0,0,0-.8-2.631c-.093-.138-.331-.516-.6-.852A6.593,6.593,0,0,0,6.494.226a4.685,4.685,0,0,1,.455,1.695c-.021.692-.241,1.108-1.279,2.463a5.192,5.192,0,0,0-.783,3.375,4.108,4.108,0,0,0-.337-.813A4.5,4.5,0,0,0,3.1,5.762a2.332,2.332,0,0,1-.151,2.153C2.092,8.989,1.4,9.79,1.593,11.4c.241,2.044,2.568,2.616,3.637,2.77h0c.322.048.527.057.527.057A2.082,2.082,0,0,1,4.6,12.612a1.943,1.943,0,0,1,.446-1.563c.143-.2.673-.723.851-.9a2.844,2.844,0,0,0,.928-1.538,4.512,4.512,0,0,0,.039-1.269,3.977,3.977,0,0,1,1.229,1.23,2.561,2.561,0,0,1,.393,1.295A1.341,1.341,0,0,0,8.791,9.4a1.547,1.547,0,0,0,.033-.613,6.4,6.4,0,0,1,1.187,3.184c-.043,1.877-1.2,2.256-1.206,2.258s4.084-.511,4.084-4.589Z" transform="translate(986.775 998.774)" fill="#fff" fill-rule="evenodd"/>
  </g>
</svg>
