<svg xmlns="http://www.w3.org/2000/svg" xmlns:xlink="http://www.w3.org/1999/xlink" width="16" height="16" viewBox="0 0 16 16">
  <defs>
    <clipPath id="clip-path">
      <rect id="Rectangle_360" data-name="Rectangle 360" width="16" height="16" transform="translate(1382 929)" stroke="#707070" stroke-width="1"/>
    </clipPath>
  </defs>
  <g id="mess-icon" transform="translate(-1382 -929)" clip-path="url(#clip-path)">
    <g id="blackberry-messenger" transform="translate(1382 929)">
      <path id="Path_104" data-name="Path 104" d="M7.549,6.569,4.957,9.314,7.316,8.019,8.549,9.314l2.578-2.745L8.793,7.841Zm0,0"/>
      <path id="Path_105" data-name="Path 105" d="M8,0a8,8,0,1,0,8,8A8,8,0,0,0,8,0Zm.063,12.282a5.138,5.138,0,0,1-1.423-.2L5.026,13V11.275A4.369,4.369,0,0,1,3.256,7.8,4.654,4.654,0,0,1,8.063,3.313,4.654,4.654,0,0,1,12.869,7.8,4.654,4.654,0,0,1,8.063,12.282Zm0,0"/>
    </g>
  </g>
</svg>
