<svg xmlns="http://www.w3.org/2000/svg" xmlns:xlink="http://www.w3.org/1999/xlink" width="20" height="20" viewBox="0 0 20 20">
  <defs>
    <clipPath id="clip-path">
      <rect id="Rectangle_361" data-name="Rectangle 361" width="20" height="20" transform="translate(1275 1042)" fill="#fff" stroke="#707070" stroke-width="1"/>
    </clipPath>
  </defs>
  <g id="phone-icon" transform="translate(-1275 -1042)" clip-path="url(#clip-path)">
    <g id="whatsapp_1_" data-name="whatsapp(1)" transform="translate(1275 1042)">
      <g id="Group_43" data-name="Group 43">
        <path id="Path_106" data-name="Path 106" d="M10,0H10A9.994,9.994,0,0,0,1.9,15.861L.658,19.576,4.5,18.347A10,10,0,1,0,10,0Zm5.819,14.121a2.822,2.822,0,0,1-1.962,1.411c-.523.111-1.2.2-3.5-.753a12.527,12.527,0,0,1-4.979-4.4A5.711,5.711,0,0,1,4.19,7.366,3.192,3.192,0,0,1,5.213,4.932a1.453,1.453,0,0,1,1.022-.359c.124,0,.235.006.335.011.294.013.441.03.635.494.241.581.829,2.016.9,2.164a.6.6,0,0,1,.042.541,1.728,1.728,0,0,1-.324.459c-.148.17-.287.3-.435.483-.135.159-.287.329-.117.622a8.876,8.876,0,0,0,1.622,2.016,7.352,7.352,0,0,0,2.345,1.446.632.632,0,0,0,.705-.111,12.1,12.1,0,0,0,.781-1.035.558.558,0,0,1,.717-.217c.27.094,1.7.8,1.993.946s.488.217.559.341A2.49,2.49,0,0,1,15.821,14.121Z"/>
      </g>
    </g>
  </g>
</svg>
