<svg xmlns="http://www.w3.org/2000/svg" xmlns:xlink="http://www.w3.org/1999/xlink" width="40" height="40" viewBox="0 0 40 40"><defs><clipPath id="a"><rect width="20" height="20" transform="translate(375 245)" fill="#fedd31"/></clipPath></defs><g transform="translate(-375 -243)"><rect width="40" height="40" rx="20" transform="translate(375 243)"/><g transform="translate(10 8)" clip-path="url(#a)"><g transform="translate(375 246.797)"><path d="M17.467,6.211H12.93V2.7H0V17.93H2.484a1.757,1.757,0,0,0,3.314,0H13.07a1.757,1.757,0,0,0,3.314,0H20V12.543Zm1.082,5.859H15.313V9.727h2.3ZM1.172,3.867H11.758v9.375H1.172ZM4.141,17.93a.586.586,0,1,1,.586-.586A.587.587,0,0,1,4.141,17.93Zm10.586,0a.587.587,0,0,1-.586-.586h0a.586.586,0,1,1,.586.586Zm4.1-2.344v1.172H16.384a1.757,1.757,0,0,0-3.314,0H5.8a1.757,1.757,0,0,0-3.314,0H1.172V14.414H12.93V7.383h3.744l.469,1.172h-3v4.688h4.688v1.172H17.656v1.172Z" transform="translate(0 -2.695)" fill="#fedd31"/><path d="M12.363,7.969h1.172v4.688H12.363Z" transform="translate(-4.121 -4.453)" fill="#fedd31"/><path d="M8.848,7.969H10.02v4.688H8.848Z" transform="translate(-2.949 -4.453)" fill="#fedd31"/><path d="M5.332,7.969H6.5v4.688H5.332Z" transform="translate(-1.777 -4.453)" fill="#fedd31"/></g></g></g></svg>