<svg xmlns="http://www.w3.org/2000/svg" xmlns:xlink="http://www.w3.org/1999/xlink" width="16" height="16" viewBox="0 0 16 16">
  <defs>
    <clipPath id="clip-path">
      <rect id="Rectangle_357" data-name="Rectangle 357" width="16" height="16" transform="translate(1255 929)" stroke="#707070" stroke-width="1"/>
    </clipPath>
  </defs>
  <g id="zalo-icon" transform="translate(-1255 -929)" clip-path="url(#clip-path)">
    <g id="layer1" transform="translate(1253.857 2572.132)">
      <path id="path1983" d="M3.43-1641.416a2.292,2.292,0,0,0-2.287,2.282v3.43a2.3,2.3,0,0,0,2.287,2.287v1.717a.572.572,0,0,0,.354.524.571.571,0,0,0,.62-.123l2.117-2.117h3.767a2.292,2.292,0,0,0,2.282-2.287v-3.43a2.288,2.288,0,0,0-2.282-2.282Zm0,1.144h6.858a1.125,1.125,0,0,1,1.144,1.138v3.43a1.129,1.129,0,0,1-1.144,1.143h-4a.571.571,0,0,0-.4.168l-1.311,1.313v-.907a.571.571,0,0,0-.569-.574H3.43a1.128,1.128,0,0,1-1.143-1.143v-3.43A1.124,1.124,0,0,1,3.43-1640.272Zm9.714,1.138v1.143h1.713A1.129,1.129,0,0,1,16-1636.847v3.43a1.128,1.128,0,0,1-1.143,1.143h-.57a.571.571,0,0,0-.406.167.572.572,0,0,0-.167.406v.9l-1.307-1.308a.572.572,0,0,0-.405-.168H8a1.125,1.125,0,0,1-.989-.569H6.758l-.667.667A2.287,2.287,0,0,0,8-1631.131h3.762l2.118,2.117a.571.571,0,0,0,.622.123.571.571,0,0,0,.353-.527v-1.713a2.293,2.293,0,0,0,2.286-2.286v-3.43a2.294,2.294,0,0,0-2.286-2.287Z"/>
    </g>
  </g>
</svg>
